<svg width="48" height="48" viewBox="0 0 48 48" fill="none" xmlns="http://www.w3.org/2000/svg">
<path fill-rule="evenodd" clip-rule="evenodd" d="M24.0199 0.879761C10.7375 0.879761 0 11.5732 0 24.8025C0 35.3773 6.87988 44.3287 16.4241 47.4969C17.6174 47.7351 18.0545 46.9821 18.0545 46.3488C18.0545 45.7942 18.0151 43.8932 18.0151 41.9125C11.3334 43.3386 9.94198 39.0607 9.94198 39.0607C8.86818 36.2882 7.27715 35.5756 7.27715 35.5756C5.09022 34.1101 7.43645 34.1101 7.43645 34.1101C9.86233 34.2686 11.1353 36.5657 11.1353 36.5657C13.2824 40.2093 16.7422 39.1798 18.1341 38.546C18.3328 37.0013 18.9695 35.9319 19.6455 35.3379C14.3163 34.7833 8.70937 32.7239 8.70937 23.5348C8.70937 20.9207 9.66321 18.7821 11.1746 17.1187C10.9361 16.5248 10.1008 14.0687 11.4135 10.7814C11.4135 10.7814 13.4417 10.1476 18.0146 13.237C19.9725 12.7134 21.9916 12.447 24.0199 12.4447C26.048 12.4447 28.1154 12.7223 30.0246 13.237C34.5981 10.1476 36.6262 10.7814 36.6262 10.7814C37.9389 14.0687 37.1031 16.5248 36.8646 17.1187C38.4158 18.7821 39.3303 20.9207 39.3303 23.5348C39.3303 32.7239 33.7234 34.7435 28.3544 35.3379C29.2296 36.0904 29.9848 37.516 29.9848 39.7738C29.9848 42.9818 29.9454 45.5565 29.9454 46.3483C29.9454 46.9821 30.383 47.7351 31.5758 47.4974C41.12 44.3282 47.9999 35.3773 47.9999 24.8025C48.0392 11.5732 37.2624 0.879761 24.0199 0.879761Z" fill="#24292F"/>
</svg>
