<svg width="48" height="49" viewBox="0 0 48 49" fill="none" xmlns="http://www.w3.org/2000/svg">
<path d="M44.4567 0.891235H3.54333C2.60358 0.891235 1.70232 1.2603 1.03782 1.91723C0.373315 2.57417 0 3.46516 0 4.39421V44.8415C0 45.7706 0.373315 46.6616 1.03782 47.3185C1.70232 47.9754 2.60358 48.3445 3.54333 48.3445H44.4567C45.3964 48.3445 46.2977 47.9754 46.9622 47.3185C47.6267 46.6616 48 45.7706 48 44.8415V4.39421C48 3.46516 47.6267 2.57417 46.9622 1.91723C46.2977 1.2603 45.3964 0.891235 44.4567 0.891235ZM14.3067 41.3155H7.09V18.6533H14.3067V41.3155ZM10.6933 15.5128C9.87473 15.5082 9.07583 15.264 8.39747 14.811C7.71911 14.358 7.19168 13.7165 6.88175 12.9675C6.57183 12.2184 6.4933 11.3954 6.65606 10.6023C6.81883 9.80912 7.2156 9.08142 7.79631 8.51101C8.37702 7.94059 9.11563 7.55301 9.91893 7.3972C10.7222 7.24138 11.5542 7.3243 12.3099 7.6355C13.0656 7.9467 13.7111 8.47222 14.1649 9.14575C14.6188 9.81928 14.8606 10.6106 14.86 11.4199C14.8677 11.9618 14.765 12.4996 14.558 13.0013C14.351 13.5031 14.044 13.9585 13.6551 14.3404C13.2663 14.7223 12.8037 15.023 12.2948 15.2244C11.786 15.4258 11.2413 15.5239 10.6933 15.5128ZM40.9067 41.3353H33.6933V28.9546C33.6933 25.3033 32.1233 24.1763 30.0967 24.1763C27.9567 24.1763 25.8567 25.7712 25.8567 29.0468V41.3353H18.64V18.6697H25.58V21.8102H25.6733C26.37 20.4163 28.81 18.0337 32.5333 18.0337C36.56 18.0337 40.91 20.3965 40.91 27.3168L40.9067 41.3353Z" fill="#0A66C2"/>
</svg>
