<svg width="50" height="50" viewBox="0 0 50 50" fill="none" xmlns="http://www.w3.org/2000/svg">
<path d="M14.0905 20.9176C14.0905 21.5329 14.157 22.0318 14.2734 22.3977C14.4065 22.7635 14.5727 23.1626 14.8056 23.595C14.8887 23.728 14.922 23.8611 14.922 23.9775C14.922 24.1438 14.8222 24.3101 14.606 24.4763L13.5584 25.1748C13.4087 25.2746 13.259 25.3245 13.126 25.3245C12.9597 25.3245 12.7934 25.2413 12.6271 25.0916C12.3943 24.8422 12.1947 24.5761 12.0284 24.3101C11.8621 24.0274 11.6958 23.7114 11.5129 23.3289C10.2158 24.8588 8.58614 25.6238 6.62386 25.6238C5.22698 25.6238 4.11281 25.2247 3.29796 24.4265C2.48312 23.6282 2.06738 22.564 2.06738 21.2336C2.06738 19.8201 2.56627 18.6727 3.58066 17.8079C4.59506 16.9432 5.94205 16.5108 7.65489 16.5108C8.22029 16.5108 8.80232 16.5607 9.41761 16.6439C10.0329 16.727 10.6648 16.86 11.33 17.0097V15.7958C11.33 14.5319 11.0639 13.6506 10.5484 13.135C10.0163 12.6195 9.11828 12.3701 7.83781 12.3701C7.25578 12.3701 6.65712 12.4366 6.04183 12.5863C5.42654 12.7359 4.82788 12.9189 4.24584 13.1517C3.97977 13.2681 3.78022 13.3346 3.66381 13.3679C3.54741 13.4011 3.46426 13.4177 3.39774 13.4177C3.16493 13.4177 3.04852 13.2515 3.04852 12.9022V12.0874C3.04852 11.8213 3.08178 11.6218 3.16493 11.5054C3.24808 11.389 3.39774 11.2725 3.63055 11.1561C4.21259 10.8568 4.91102 10.6074 5.72587 10.4078C6.54071 10.1916 7.40544 10.0919 8.32007 10.0919C10.299 10.0919 11.7457 10.5408 12.677 11.4388C13.5916 12.3368 14.0572 13.7004 14.0572 15.5297V20.9176H14.0905ZM7.33893 23.4453C7.8877 23.4453 8.4531 23.3455 9.05176 23.146C9.65042 22.9464 10.1826 22.5806 10.6316 22.0817C10.8976 21.7657 11.0972 21.4165 11.197 21.0174C11.2967 20.6183 11.3633 20.1361 11.3633 19.5707V18.8722C10.881 18.7558 10.3655 18.656 9.83335 18.5895C9.30121 18.523 8.78569 18.4897 8.27018 18.4897C7.156 18.4897 6.34116 18.7059 5.79239 19.1549C5.24361 19.6039 4.97754 20.2358 4.97754 21.0673C4.97754 21.8489 5.17709 22.4309 5.59283 22.83C5.99194 23.2458 6.57397 23.4453 7.33893 23.4453ZM20.6924 25.2413C20.3931 25.2413 20.1935 25.1914 20.0605 25.075C19.9274 24.9752 19.811 24.7424 19.7113 24.4265L15.8033 11.5719C15.7036 11.2393 15.6537 11.0231 15.6537 10.9067C15.6537 10.6406 15.7867 10.491 16.0528 10.491H17.6825C17.9984 10.491 18.2146 10.5408 18.331 10.6573C18.464 10.757 18.5638 10.9898 18.6636 11.3058L21.4574 22.3145L24.0516 11.3058C24.1347 10.9732 24.2345 10.757 24.3675 10.6573C24.5005 10.5575 24.7334 10.491 25.0327 10.491H26.363C26.679 10.491 26.8952 10.5408 27.0282 10.6573C27.1613 10.757 27.2777 10.9898 27.3442 11.3058L29.9716 22.4476L32.8485 11.3058C32.9483 10.9732 33.0647 10.757 33.1811 10.6573C33.3142 10.5575 33.5304 10.491 33.8297 10.491H35.3762C35.6423 10.491 35.792 10.624 35.792 10.9067C35.792 10.9898 35.7753 11.073 35.7587 11.1728C35.7421 11.2725 35.7088 11.4056 35.6423 11.5885L31.6346 24.4431C31.5348 24.7757 31.4184 24.9919 31.2854 25.0916C31.1523 25.1914 30.9362 25.2579 30.6535 25.2579H29.2233C28.9074 25.2579 28.6912 25.208 28.5581 25.0916C28.4251 24.9752 28.3087 24.759 28.2422 24.4265L25.6646 13.7004L23.1037 24.4098C23.0205 24.7424 22.9207 24.9586 22.7877 25.075C22.6547 25.1914 22.4219 25.2413 22.1225 25.2413H20.6924ZM42.0613 25.6903C41.1965 25.6903 40.3318 25.5905 39.5003 25.391C38.6689 25.1914 38.0203 24.9752 37.5879 24.7258C37.3219 24.5761 37.139 24.4098 37.0724 24.2602C37.0059 24.1105 36.9727 23.9442 36.9727 23.7945V22.9464C36.9727 22.5972 37.1057 22.4309 37.3551 22.4309C37.4549 22.4309 37.5547 22.4476 37.6545 22.4808C37.7542 22.5141 37.9039 22.5806 38.0702 22.6471C38.6356 22.8965 39.2509 23.0961 39.8994 23.2291C40.5646 23.3622 41.2132 23.4287 41.8783 23.4287C42.926 23.4287 43.7409 23.2458 44.3063 22.8799C44.8717 22.5141 45.171 21.9819 45.171 21.3001C45.171 20.8345 45.0213 20.452 44.722 20.1361C44.4227 19.8201 43.8573 19.5374 43.0424 19.2713L40.6311 18.523C39.4172 18.1405 38.5192 17.5751 37.9704 16.8268C37.4216 16.0951 37.139 15.2802 37.139 14.4155C37.139 13.7171 37.2886 13.1018 37.5879 12.5696C37.8873 12.0375 38.2864 11.5719 38.7853 11.206C39.2842 10.8235 39.8496 10.5408 40.5147 10.3413C41.1799 10.1417 41.8783 10.0586 42.61 10.0586C42.9759 10.0586 43.3584 10.0752 43.7242 10.1251C44.1067 10.175 44.4559 10.2415 44.8051 10.308C45.1377 10.3912 45.4537 10.4743 45.753 10.5741C46.0523 10.6739 46.2852 10.7737 46.4515 10.8734C46.6843 11.0065 46.8506 11.1395 46.9503 11.2892C47.0501 11.4222 47.1 11.6051 47.1 11.8379V12.6195C47.1 12.9688 46.967 13.1517 46.7175 13.1517C46.5845 13.1517 46.3683 13.0852 46.0856 12.9521C45.1377 12.5198 44.0734 12.3036 42.8927 12.3036C41.9449 12.3036 41.1965 12.4532 40.681 12.7692C40.1655 13.0852 39.8994 13.5674 39.8994 14.2492C39.8994 14.7148 40.0657 15.114 40.3983 15.4299C40.7309 15.7459 41.3462 16.0618 42.2276 16.3445L44.589 17.0929C45.7863 17.4753 46.651 18.0075 47.1665 18.6893C47.682 19.3711 47.9315 20.1527 47.9315 21.0174C47.9315 21.7325 47.7818 22.381 47.4991 22.9464C47.1998 23.5118 46.8007 24.0107 46.2852 24.4098C45.7696 24.8256 45.1544 25.1249 44.4393 25.3411C43.691 25.5739 42.9094 25.6903 42.0613 25.6903Z" fill="#252F3E"/>
<path d="M45.2042 33.7722C39.7331 37.8132 31.7843 39.9584 24.9495 39.9584C15.371 39.9584 6.74026 36.4163 0.221507 30.5295C-0.294006 30.0639 0.171619 29.4319 0.78691 29.7978C7.83781 33.8886 16.535 36.3664 25.5316 36.3664C31.6013 36.3664 38.2697 35.1026 44.406 32.5084C45.3206 32.0926 46.1022 33.107 45.2042 33.7722ZM47.4825 31.178C46.784 30.28 42.8595 30.7457 41.0801 30.9618C40.548 31.0284 40.4648 30.5627 40.9471 30.2135C44.0734 28.0184 49.2119 28.6503 49.8106 29.382C50.4093 30.1304 49.6443 35.2689 46.7175 37.73C46.2685 38.1125 45.8362 37.913 46.0357 37.4141C46.7009 35.7678 48.1809 32.0594 47.4825 31.178Z" fill="#FF9900"/>
</svg>
