<svg width="31" height="42" viewBox="0 0 31 42" fill="none" xmlns="http://www.w3.org/2000/svg">
<g clip-path="url(#clip0_13_692)">
<path d="M15.5 21C15.5 19.1435 16.3165 17.363 17.7699 16.0503C19.2233 14.7375 21.1946 14 23.25 14C25.3054 14 27.2767 14.7375 28.7301 16.0503C30.1835 17.363 31 19.1435 31 21C31 22.8565 30.1835 24.637 28.7301 25.9497C27.2767 27.2625 25.3054 28 23.25 28C21.1946 28 19.2233 27.2625 17.7699 25.9497C16.3165 24.637 15.5 22.8565 15.5 21Z" fill="#1ABCFE"/>
<path d="M0 35C0 33.1435 0.816515 31.363 2.26992 30.0503C3.72333 28.7375 5.69457 28 7.75 28H15.5V35C15.5 36.8565 14.6835 38.637 13.2301 39.9497C11.7767 41.2625 9.80543 42 7.75 42C5.69457 42 3.72333 41.2625 2.26992 39.9497C0.816515 38.637 0 36.8565 0 35H0Z" fill="#0ACF83"/>
<path d="M15.5 0V14H23.25C25.3054 14 27.2767 13.2625 28.7301 11.9497C30.1835 10.637 31 8.85651 31 7C31 5.14348 30.1835 3.36301 28.7301 2.05025C27.2767 0.737498 25.3054 0 23.25 0L15.5 0Z" fill="#FF7262"/>
<path d="M0 7C0 8.85651 0.816515 10.637 2.26992 11.9497C3.72333 13.2625 5.69457 14 7.75 14H15.5V0H7.75C5.69457 0 3.72333 0.737498 2.26992 2.05025C0.816515 3.36301 0 5.14348 0 7H0Z" fill="#F24E1E"/>
<path d="M0 21C0 22.8565 0.816515 24.637 2.26992 25.9497C3.72333 27.2625 5.69457 28 7.75 28H15.5V14H7.75C5.69457 14 3.72333 14.7375 2.26992 16.0503C0.816515 17.363 0 19.1435 0 21H0Z" fill="#A259FF"/>
</g>
<defs>
<clipPath id="clip0_13_692">
<rect width="31" height="42" fill="white"/>
</clipPath>
</defs>
</svg>
