<svg width="50" height="50" viewBox="0 0 50 50" fill="none" xmlns="http://www.w3.org/2000/svg">
<path fill-rule="evenodd" clip-rule="evenodd" d="M39.0366 38.5254C39.0366 41.206 32.8268 43.366 25.1706 43.366C17.5145 43.366 11.3047 41.1867 11.3047 38.5254C11.3047 35.8448 17.5145 33.6849 25.1706 33.6849C32.8268 33.6849 39.0366 35.8448 39.0366 38.5254Z" fill="#9EDCF2"/>
<mask id="mask0_13_287" style="mask-type:luminance" maskUnits="userSpaceOnUse" x="17" y="36" width="16" height="14">
<path fill-rule="evenodd" clip-rule="evenodd" d="M19.2117 47.2037C19.5202 48.65 20.2724 49.4986 21.0245 50H28.9506C29.9149 49.3443 30.8984 48.1101 30.8984 45.7959V39.8175C30.8984 39.8175 31.0141 38.3326 32.3834 37.8504C32.3834 37.8504 33.174 37.2912 32.3255 36.9826C32.3255 36.9826 28.5649 36.674 28.5649 39.7596V44.3109C28.5649 44.3109 28.7192 45.9887 27.8321 46.683V41.0517C27.8321 41.0517 27.8899 39.2582 28.8156 38.5833C28.8156 38.5833 29.4328 37.484 28.0828 37.7733C28.0828 37.7733 25.4986 38.1397 25.3829 41.1675L25.325 46.953H24.7079L24.6501 41.1675C24.5344 38.159 21.9502 37.7733 21.9502 37.7733C20.6002 37.4647 21.2173 38.5833 21.2173 38.5833C22.143 39.2582 22.2009 41.0517 22.2009 41.0517V46.7408C21.3137 46.1044 21.468 44.3109 21.468 44.3109V39.7596C21.468 36.674 17.7074 36.9826 17.7074 36.9826C16.8396 37.2912 17.6496 37.8504 17.6496 37.8504C18.9995 38.3518 19.1345 39.8175 19.1345 39.8175V44.0024L19.2117 47.2037Z" fill="white"/>
</mask>
<g mask="url(#mask0_13_287)">
<path fill-rule="evenodd" clip-rule="evenodd" d="M39.0368 38.5254C39.0368 41.206 32.827 43.3659 25.1709 43.3659C17.5147 43.3659 11.3049 41.1867 11.3049 38.5254C11.3049 35.8448 17.5147 33.6848 25.1709 33.6848C32.827 33.6848 39.0368 35.8448 39.0368 38.5254Z" fill="#7DBCE7"/>
</g>
<path fill-rule="evenodd" clip-rule="evenodd" d="M9.33764 24.2738L8.93266 25.6623C8.93266 25.6623 8.83623 26.1637 9.29907 26.2601C9.80048 26.2408 9.76191 25.778 9.72334 25.643L9.33764 24.2738Z" fill="#9EDCF2"/>
<path fill-rule="evenodd" clip-rule="evenodd" d="M49.6241 18.4304L49.6627 18.2568C45.5935 17.4469 41.428 17.4276 38.9016 17.5433C39.3066 16.0583 39.4416 14.3227 39.4416 12.4135C39.4416 9.6557 38.4002 7.45721 36.7417 5.7987C37.031 4.85373 37.4167 2.75166 36.356 0.0710393C36.356 0.0710393 34.4661 -0.526797 30.1655 2.34667C28.4877 1.9224 26.6942 1.71027 24.9007 1.71027C22.9336 1.71027 20.9472 1.96097 19.0766 2.46238C14.641 -0.565367 12.6932 0.0517542 12.6932 0.0517542C11.4204 3.23379 12.2111 5.60584 12.4425 6.1844C10.9383 7.80434 10.0319 9.86784 10.0319 12.3942C10.0319 14.3034 10.244 16.0198 10.784 17.5047C8.2384 17.4083 4.22712 17.4469 0.292969 18.2375L0.331539 18.4111C4.26569 17.6204 8.31554 17.6011 10.8419 17.6976C10.9576 18.0061 11.0926 18.3147 11.2276 18.604C8.72053 18.6811 4.45854 19.0089 0.370109 20.166L0.427964 20.3396C4.55496 19.1825 8.85553 18.874 11.3433 18.7968C12.8475 21.5739 15.7789 23.3867 21.0244 23.9459C20.2723 24.4473 19.5202 25.2959 19.2116 26.7422C18.1895 27.2244 14.9882 28.42 13.0597 25.103C13.0597 25.103 11.9797 23.1359 9.9162 22.9817C9.9162 22.9817 7.91056 22.9431 9.78121 24.2352C9.78121 24.2352 11.1119 24.8716 12.0376 27.2437C12.0376 27.2437 13.2525 31.2935 19.0573 29.9821V34.1284C19.0573 34.1284 18.9416 35.6134 17.5724 36.0955C17.5724 36.0955 16.7624 36.6548 17.6302 36.9633C17.6302 36.9633 21.3908 37.2719 21.3908 34.1863V29.635C21.3908 29.635 21.2365 27.8222 22.1236 27.2051V34.6877C22.1236 34.6877 22.0658 36.4812 21.1401 37.1562C21.1401 37.1562 20.523 38.2554 21.8729 37.9661C21.8729 37.9661 24.4571 37.5997 24.5728 34.572L24.6307 26.993H25.2478L25.3057 34.572C25.4214 37.5804 28.0056 37.9661 28.0056 37.9661C29.3555 38.2747 28.7384 37.1562 28.7384 37.1562C27.8127 36.4812 27.7549 34.6877 27.7549 34.6877V27.2629C28.642 27.9572 28.4877 29.635 28.4877 29.635V34.1863C28.4877 37.2719 32.2483 36.9633 32.2483 36.9633C33.1161 36.6548 32.3061 36.0955 32.3061 36.0955C30.9562 35.5941 30.8212 34.1284 30.8212 34.1284V28.1501C30.8212 25.8166 29.8376 24.5823 28.8734 23.9459C34.4661 23.3867 37.1467 21.5931 38.3809 18.7775C40.8301 18.8354 45.2464 19.1439 49.4505 20.3396L49.5084 20.166C45.3235 18.9897 40.9458 18.6811 38.4581 18.604C38.5738 18.3147 38.6702 18.0254 38.7666 17.7168C41.3508 17.6204 45.5357 17.6204 49.6241 18.4304Z" fill="#010101"/>
<path fill-rule="evenodd" clip-rule="evenodd" d="M33.9646 12.2785C35.1603 13.3777 35.8738 14.6891 35.8738 16.0969C35.8738 22.731 30.9369 22.9045 24.8428 22.9045C18.7487 22.9045 13.8118 21.9788 13.8118 16.0969C13.8118 14.6891 14.506 13.3777 15.7017 12.2978C17.6881 10.485 21.0437 11.4492 24.8428 11.4492C28.642 11.4492 31.9783 10.4657 33.9646 12.2785Z" fill="#F5CCB3"/>
<path fill-rule="evenodd" clip-rule="evenodd" d="M21.1787 16.444C21.1787 18.2761 20.1566 19.7418 18.8838 19.7418C17.611 19.7418 16.5889 18.2568 16.5889 16.444C16.5889 14.612 17.611 13.1463 18.8838 13.1463C20.1566 13.127 21.1787 14.612 21.1787 16.444Z" fill="white"/>
<path fill-rule="evenodd" clip-rule="evenodd" d="M20.4457 16.4826C20.4457 17.6976 19.7515 18.6811 18.9222 18.6811C18.0737 18.6811 17.3987 17.6976 17.3987 16.4826C17.3987 15.2676 18.0929 14.2841 18.9222 14.2841C19.7515 14.2841 20.4457 15.2676 20.4457 16.4826Z" fill="#AF5C51"/>
<path fill-rule="evenodd" clip-rule="evenodd" d="M33.5017 16.444C33.5017 18.2761 32.4796 19.7418 31.2068 19.7418C29.934 19.7418 28.9119 18.2568 28.9119 16.444C28.9119 14.612 29.934 13.1463 31.2068 13.1463C32.4603 13.127 33.5017 14.612 33.5017 16.444Z" fill="white"/>
<path fill-rule="evenodd" clip-rule="evenodd" d="M32.7497 16.4826C32.7497 17.6976 32.0554 18.6811 31.2262 18.6811C30.3776 18.6811 29.7026 17.6976 29.7026 16.4826C29.7026 15.2676 30.3969 14.2841 31.2262 14.2841C32.0747 14.2841 32.7497 15.2676 32.7497 16.4826Z" fill="#AF5C51"/>
<path fill-rule="evenodd" clip-rule="evenodd" d="M25.4598 19.3754C25.4598 19.6839 25.2091 19.9539 24.8813 19.9539C24.5727 19.9539 24.3027 19.7032 24.3027 19.3754C24.3027 19.0475 24.5534 18.7968 24.8813 18.7968C25.1898 18.7968 25.4598 19.0475 25.4598 19.3754Z" fill="#AF5C51"/>
<path fill-rule="evenodd" clip-rule="evenodd" d="M23.5507 20.8217C23.5121 20.7253 23.5699 20.6289 23.6664 20.5903C23.7628 20.5517 23.8592 20.6096 23.8978 20.706C24.0521 21.1303 24.4378 21.4003 24.8813 21.4003C25.3249 21.4003 25.7106 21.111 25.8649 20.706C25.9034 20.6096 25.9999 20.5517 26.0963 20.5903C26.1927 20.6289 26.2506 20.7253 26.212 20.8217C26.0191 21.381 25.4792 21.7667 24.8813 21.7667C24.2835 21.7667 23.7435 21.381 23.5507 20.8217Z" fill="#AF5C51"/>
<path fill-rule="evenodd" clip-rule="evenodd" d="M10.8034 23.4445C10.8034 23.5988 10.6298 23.7145 10.3984 23.7145C10.1863 23.7145 9.99341 23.5988 9.99341 23.4445C9.99341 23.2902 10.167 23.1745 10.3984 23.1745C10.6298 23.1745 10.8034 23.2902 10.8034 23.4445Z" fill="#C4E5D9"/>
<path fill-rule="evenodd" clip-rule="evenodd" d="M11.9218 24.0616C11.9218 24.2159 11.7482 24.3316 11.5168 24.3316C11.3047 24.3316 11.1118 24.2159 11.1118 24.0616C11.1118 23.9073 11.2854 23.7916 11.5168 23.7916C11.7482 23.7916 11.9218 23.9073 11.9218 24.0616Z" fill="#C4E5D9"/>
<path fill-rule="evenodd" clip-rule="evenodd" d="M12.5968 24.8716C12.5968 25.0259 12.4233 25.1416 12.1919 25.1416C11.9797 25.1416 11.7869 25.0259 11.7869 24.8716C11.7869 24.7173 11.9604 24.6016 12.1919 24.6016C12.4233 24.5823 12.5968 24.7173 12.5968 24.8716Z" fill="#C4E5D9"/>
<path fill-rule="evenodd" clip-rule="evenodd" d="M13.214 25.7973C13.214 25.9516 13.0405 26.0673 12.809 26.0673C12.5969 26.0673 12.4041 25.9516 12.4041 25.7973C12.4041 25.643 12.5776 25.5273 12.809 25.5273C13.0405 25.508 13.214 25.643 13.214 25.7973Z" fill="#C4E5D9"/>
<path fill-rule="evenodd" clip-rule="evenodd" d="M13.8888 26.6458C13.8888 26.8001 13.7153 26.9158 13.4838 26.9158C13.2717 26.9158 13.0789 26.8001 13.0789 26.6458C13.0789 26.4915 13.2524 26.3758 13.4838 26.3758C13.7153 26.3758 13.8888 26.4915 13.8888 26.6458Z" fill="#C4E5D9"/>
<path fill-rule="evenodd" clip-rule="evenodd" d="M14.8146 27.3979C14.8146 27.5522 14.641 27.6679 14.4096 27.6679C14.1975 27.6679 14.0046 27.5522 14.0046 27.3979C14.0046 27.2437 14.1782 27.1279 14.4096 27.1279C14.641 27.1087 14.8146 27.2437 14.8146 27.3979Z" fill="#C4E5D9"/>
<path fill-rule="evenodd" clip-rule="evenodd" d="M16.1066 27.8801C16.1066 28.0343 15.933 28.1501 15.7016 28.1501C15.4895 28.1501 15.2966 28.0343 15.2966 27.8801C15.2966 27.7258 15.4702 27.6101 15.7016 27.6101C15.933 27.6101 16.1066 27.7258 16.1066 27.8801Z" fill="#C4E5D9"/>
<path fill-rule="evenodd" clip-rule="evenodd" d="M17.3988 27.8801C17.3988 28.0343 17.2253 28.1501 16.9939 28.1501C16.7817 28.1501 16.5889 28.0343 16.5889 27.8801C16.5889 27.7258 16.7624 27.6101 16.9939 27.6101C17.2253 27.6101 17.3988 27.7258 17.3988 27.8801Z" fill="#C4E5D9"/>
<path fill-rule="evenodd" clip-rule="evenodd" d="M18.7101 27.6679C18.7101 27.8222 18.5366 27.9379 18.3051 27.9379C18.093 27.9379 17.9001 27.8222 17.9001 27.6679C17.9001 27.5136 18.0737 27.3979 18.3051 27.3979C18.5173 27.3979 18.7101 27.5136 18.7101 27.6679Z" fill="#C4E5D9"/>
</svg>
