<svg width="50" height="50" viewBox="0 0 50 50" fill="none" xmlns="http://www.w3.org/2000/svg">
<path d="M15.9637 48.5963C14.7999 48.5963 13.7007 48.079 12.9571 47.1414L1.64167 33.078C0.898088 32.1404 0.60712 30.9442 0.898088 29.7804L4.93931 12.2253C5.19794 11.0614 5.97386 10.1239 7.04074 9.6066L23.3996 1.7828C23.9169 1.52417 24.4988 1.39485 25.0807 1.39485C25.6627 1.39485 26.2446 1.52417 26.7619 1.7828L43.1207 9.57427C44.1876 10.0915 44.9635 11.0291 45.2222 12.193L49.2634 29.748C49.522 30.9119 49.2634 32.1081 48.5198 33.0457L37.2044 47.1091C36.4608 48.0143 35.3616 48.5639 34.1977 48.5639L15.9637 48.5963Z" fill="#326DE6"/>
<path d="M25.0485 2.20309C25.5011 2.20309 25.9537 2.30008 26.374 2.49406L42.7329 10.2855C43.5734 10.7058 44.22 11.4817 44.414 12.387L48.4552 29.942C48.6815 30.8796 48.4552 31.8495 47.841 32.593L36.5256 46.6565C35.9436 47.4001 35.0384 47.8204 34.1008 47.8204H15.9638C15.0263 47.8204 14.121 47.4001 13.5391 46.6565L2.2237 32.593C1.64176 31.8495 1.41546 30.8796 1.60943 29.942L5.65065 12.387C5.87696 11.4494 6.49122 10.6735 7.3318 10.2855L23.6906 2.46173C24.1109 2.30008 24.5959 2.20309 25.0485 2.20309ZM25.0485 0.683594C24.3696 0.683594 23.6906 0.845242 23.044 1.13621L6.6852 8.96001C5.39201 9.57427 4.48678 10.7058 4.16348 12.096L0.122266 29.651C-0.201031 31.0412 0.122266 32.4637 1.0275 33.5953L12.3429 47.6587C13.2158 48.7579 14.5413 49.3722 15.9315 49.3722H34.0685C35.4587 49.3722 36.7842 48.7579 37.6571 47.6587L48.9725 33.5953C49.8777 32.4961 50.201 31.0412 49.8777 29.651L45.8365 12.096C45.5132 10.7058 44.608 9.57427 43.3148 8.96001L27.0206 1.13621C26.4063 0.845242 25.7274 0.683594 25.0485 0.683594Z" fill="white"/>
<path d="M41.4397 28.5518C41.4073 28.5518 41.4073 28.5518 41.4397 28.5518H41.4073C41.375 28.5518 41.3427 28.5518 41.3427 28.5195C41.278 28.5195 41.2134 28.4872 41.1487 28.4872C40.9224 28.4548 40.7284 28.4225 40.5344 28.4225C40.4374 28.4225 40.3405 28.4225 40.2111 28.3902H40.1788C39.4999 28.3255 38.9503 28.2609 38.433 28.0992C38.2067 28.0022 38.142 27.8729 38.0774 27.7436C38.0774 27.7113 38.045 27.7113 38.045 27.6789L37.6248 27.5496C37.8187 26.0624 37.7541 24.5106 37.3984 22.9911C37.0428 21.4716 36.4285 20.0491 35.588 18.7559L35.9113 18.4649V18.4003C35.9113 18.2386 35.9436 18.077 36.0729 17.9153C36.4609 17.5597 36.9458 17.2687 37.5278 16.9131C37.6248 16.8485 37.7217 16.8161 37.8187 16.7515C38.0127 16.6545 38.1744 16.5575 38.3683 16.4282C38.4007 16.3958 38.4653 16.3635 38.53 16.2989C38.5623 16.2665 38.5946 16.2665 38.5946 16.2342C39.0473 15.8462 39.1442 15.1996 38.8209 14.7794C38.6593 14.5531 38.3683 14.4237 38.0774 14.4237C37.8187 14.4237 37.5924 14.5207 37.3661 14.6824C37.3338 14.7147 37.3338 14.7147 37.3015 14.747C37.2368 14.7794 37.2045 14.844 37.1398 14.8763C36.9782 15.038 36.8488 15.1673 36.7195 15.329C36.6549 15.3936 36.5902 15.4906 36.4932 15.5553C36.0406 16.0402 35.6203 16.4282 35.2 16.7191C35.103 16.7838 35.006 16.8161 34.9091 16.8161C34.8444 16.8161 34.7797 16.8161 34.7151 16.7838H34.6504L34.2625 17.0424C33.8422 16.5898 33.3896 16.2019 32.9369 15.8139C30.9972 14.2944 28.6371 13.3568 26.18 13.1305L26.1477 12.7103C26.1154 12.6779 26.1154 12.6779 26.083 12.6456C25.986 12.5486 25.8567 12.4516 25.8244 12.2253C25.7921 11.708 25.8567 11.1261 25.9214 10.4795V10.4472C25.9214 10.3502 25.9537 10.2209 25.986 10.1239C26.0184 9.9299 26.0507 9.73592 26.083 9.50961V9.31563V9.21864C26.083 8.63671 25.6304 8.15176 25.0808 8.15176C24.8222 8.15176 24.5635 8.28108 24.3696 8.47506C24.1756 8.66904 24.0786 8.92768 24.0786 9.21864V9.2833V9.47728C24.0786 9.70359 24.1109 9.89757 24.1756 10.0915C24.2079 10.1885 24.2079 10.2855 24.2402 10.4148V10.4472C24.3049 11.0938 24.4019 11.6757 24.3372 12.193C24.3049 12.4193 24.1756 12.5163 24.0786 12.6133C24.0463 12.6456 24.0463 12.6456 24.0139 12.6779L23.9816 13.0982C23.3997 13.1629 22.8177 13.2275 22.2358 13.3568C19.7464 13.9065 17.548 15.1673 15.8345 16.9778L15.5112 16.7515H15.4466C15.3819 16.7515 15.3172 16.7838 15.2526 16.7838C15.1556 16.7838 15.0586 16.7515 14.9616 16.6868C14.5413 16.3958 14.121 15.9756 13.6684 15.4906C13.6038 15.426 13.5391 15.329 13.4421 15.2643C13.3128 15.1027 13.1835 14.9733 13.0218 14.8117C12.9895 14.7794 12.9248 14.747 12.8602 14.6824C12.8278 14.65 12.7955 14.65 12.7955 14.6177C12.6015 14.4561 12.3429 14.3591 12.0843 14.3591C11.7933 14.3591 11.5023 14.4884 11.3407 14.7147C11.0174 15.135 11.1144 15.7816 11.567 16.1695C11.5993 16.1695 11.5993 16.2019 11.6316 16.2019C11.6963 16.2342 11.7286 16.2989 11.7933 16.3312C11.9873 16.4605 12.1489 16.5575 12.3429 16.6545C12.4399 16.6868 12.5369 16.7515 12.6339 16.8161C13.2158 17.1718 13.7007 17.4627 14.0887 17.8184C14.2504 17.98 14.2504 18.1417 14.2504 18.3033V18.368L14.5736 18.6589C14.509 18.7559 14.4443 18.8206 14.412 18.9176C12.7955 21.4716 12.1812 24.4783 12.6015 27.4526L12.1812 27.5819C12.1812 27.6143 12.1489 27.6143 12.1489 27.6466C12.0843 27.7759 11.9873 27.9052 11.7933 28.0022C11.3083 28.1639 10.7264 28.2285 10.0475 28.2932H10.0152C9.91817 28.2932 9.78885 28.2932 9.69186 28.3255C9.49788 28.3255 9.3039 28.3578 9.07759 28.3902C9.01294 28.3902 8.94828 28.4225 8.88362 28.4225C8.85129 28.4225 8.81896 28.4225 8.78663 28.4548C8.20469 28.5842 7.84906 29.1338 7.94605 29.651C8.04304 30.1037 8.46333 30.3946 8.98061 30.3946C9.07759 30.3946 9.14225 30.3946 9.23924 30.3623C9.27157 30.3623 9.3039 30.3623 9.3039 30.33C9.36856 30.33 9.43322 30.2976 9.49788 30.2976C9.72419 30.233 9.88584 30.1683 10.0798 30.0713C10.1768 30.039 10.2738 29.9743 10.3708 29.942H10.4031C11.0174 29.7157 11.567 29.5217 12.0843 29.4571H12.1489C12.3429 29.4571 12.4722 29.554 12.5692 29.6187C12.6015 29.6187 12.6015 29.651 12.6339 29.651L13.0865 29.5864C13.8624 31.9788 15.3496 34.1125 17.3217 35.6644C17.7743 36.02 18.2269 36.311 18.7119 36.6019L18.5179 37.0222C18.5179 37.0546 18.5502 37.0546 18.5502 37.0869C18.6149 37.2162 18.6795 37.3778 18.6149 37.6042C18.4209 38.0891 18.1299 38.574 17.7743 39.1237V39.156C17.7096 39.253 17.645 39.3176 17.5803 39.4146C17.451 39.5763 17.354 39.7379 17.2247 39.9319C17.1924 39.9642 17.16 40.0289 17.1277 40.0935C17.1277 40.1259 17.0954 40.1582 17.0954 40.1582C16.8367 40.7078 17.0307 41.3221 17.5157 41.5484C17.645 41.613 17.7743 41.6454 17.9036 41.6454C18.2916 41.6454 18.6795 41.3867 18.8735 41.0311C18.8735 40.9988 18.9058 40.9664 18.9058 40.9664C18.9382 40.9018 18.9705 40.8371 19.0028 40.8048C19.0998 40.5785 19.1321 40.4168 19.1968 40.2229C19.2291 40.1259 19.2615 40.0289 19.2938 39.9319C19.5201 39.2853 19.6817 38.768 19.9727 38.3154C20.102 38.1214 20.2637 38.0891 20.393 38.0244C20.4253 38.0244 20.4253 38.0244 20.4577 37.9921L20.684 37.5718C22.1065 38.1214 23.6583 38.4124 25.2101 38.4124C26.1477 38.4124 27.1176 38.3154 28.0228 38.0891C28.6048 37.9598 29.1544 37.7981 29.704 37.6042L29.8979 37.9598C29.9303 37.9598 29.9303 37.9598 29.9626 37.9921C30.1243 38.0244 30.2536 38.0891 30.3829 38.2831C30.6415 38.7357 30.8355 39.2853 31.0618 39.8996V39.9319C31.0941 40.0289 31.1265 40.1259 31.1588 40.2229C31.2235 40.4168 31.2558 40.6108 31.3528 40.8048C31.3851 40.8695 31.4174 40.9018 31.4498 40.9664C31.4498 40.9988 31.4821 41.0311 31.4821 41.0311C31.6761 41.4191 32.064 41.6454 32.452 41.6454C32.5813 41.6454 32.7106 41.613 32.84 41.5484C33.0663 41.4191 33.2602 41.2251 33.3249 40.9664C33.3896 40.7078 33.3896 40.4168 33.2602 40.1582C33.2602 40.1259 33.2279 40.1259 33.2279 40.0935C33.1956 40.0289 33.1632 39.9642 33.1309 39.9319C33.0339 39.7379 32.9046 39.5763 32.7753 39.4146C32.7106 39.3176 32.646 39.253 32.5813 39.156V39.1237C32.2257 38.574 31.9024 38.0891 31.7407 37.6042C31.6761 37.3778 31.7407 37.2485 31.7731 37.0869C31.7731 37.0546 31.8054 37.0546 31.8054 37.0222L31.6438 36.6343C33.3572 35.632 34.8121 34.2095 35.9113 32.4637C36.4932 31.5585 36.9458 30.5563 37.2691 29.554L37.6571 29.6187C37.6894 29.6187 37.6894 29.5864 37.7217 29.5864C37.8511 29.5217 37.948 29.4247 38.142 29.4247H38.2067C38.724 29.4894 39.2736 29.6834 39.8878 29.9097H39.9202C40.0172 29.942 40.1141 30.0067 40.2111 30.039C40.4051 30.136 40.5668 30.2006 40.7931 30.2653C40.8577 30.2653 40.9224 30.2976 40.987 30.2976C41.0194 30.2976 41.0517 30.2976 41.084 30.33C41.181 30.3623 41.2457 30.3623 41.3427 30.3623C41.8276 30.3623 42.2479 30.039 42.3772 29.6187C42.3772 29.2308 42.0216 28.7135 41.4397 28.5518ZM26.471 26.9677L25.0485 27.6466L23.626 26.9677L23.2703 25.4482L24.2402 24.2196H25.8244L26.7943 25.4482L26.471 26.9677ZM34.9091 23.6054C35.1677 24.7046 35.2323 25.8038 35.1354 26.8707L30.1889 25.4482C29.7363 25.3189 29.4777 24.8662 29.5746 24.4136C29.607 24.2843 29.6716 24.155 29.7686 24.058L33.6805 20.5341C34.2301 21.4393 34.6504 22.4738 34.9091 23.6054ZM32.1287 18.5943L27.8935 21.6009C27.5379 21.8272 27.0529 21.7626 26.762 21.407C26.665 21.31 26.6326 21.1806 26.6003 21.0513L26.3093 15.7816C28.5401 16.0402 30.5769 17.0424 32.1287 18.5943ZM22.7531 15.9432C23.1087 15.8786 23.432 15.8139 23.7876 15.7493L23.4967 20.922C23.4643 21.3746 23.1087 21.7626 22.6238 21.7626C22.4944 21.7626 22.3328 21.7303 22.2358 21.6656L17.9359 18.5943C19.2615 17.2687 20.9103 16.3635 22.7531 15.9432ZM16.3841 20.5341L20.2314 23.961C20.587 24.252 20.6193 24.8016 20.3283 25.1572C20.2314 25.2865 20.102 25.3835 19.9404 25.4158L14.9293 26.8707C14.7353 24.6723 15.2202 22.4415 16.3841 20.5341ZM15.5112 29.2954L20.6516 28.4225C21.0719 28.3902 21.4599 28.6811 21.5569 29.1014C21.5892 29.2954 21.5892 29.4571 21.5245 29.6187L19.5524 34.3712C17.742 33.2073 16.2871 31.4292 15.5112 29.2954ZM27.3116 35.729C26.568 35.8907 25.8244 35.9877 25.0485 35.9877C23.9169 35.9877 22.8177 35.7937 21.7832 35.4704L24.3372 30.8472C24.5959 30.5563 25.0162 30.427 25.3718 30.6209C25.5334 30.7179 25.6627 30.8472 25.7597 30.9766L28.2491 35.4704C27.9582 35.5674 27.6349 35.632 27.3116 35.729ZM33.6159 31.2352C32.8076 32.5284 31.7407 33.5629 30.5122 34.3712L28.4754 29.4894C28.3784 29.1014 28.5401 28.6811 28.9281 28.4872C29.0574 28.4225 29.219 28.3902 29.3807 28.3902L34.5534 29.2631C34.3594 29.9743 34.0361 30.6209 33.6159 31.2352Z" fill="white"/>
</svg>
