<svg width="50" height="50" viewBox="0 0 50 50" fill="none" xmlns="http://www.w3.org/2000/svg">
<path d="M43.75 18.0208C43.75 39.375 25 45.8333 25 45.8333C25 45.8333 6.25 39.375 6.25 18.0208C6.25 15.4167 6.45833 13.2292 6.66667 11.4583C6.97917 8.85416 8.75 6.77083 11.25 6.14583C14.4792 5.20833 19.5833 4.16666 25 4.16666C30.4167 4.16666 35.5208 5.20833 38.8542 6.14583C41.3542 6.77083 43.125 8.95833 43.4375 11.4583C43.5417 13.2292 43.75 15.5208 43.75 18.0208Z" fill="#5D4037"/>
<path d="M25 7.29166C30.1042 7.29166 34.8958 8.33333 38.0208 9.16666C39.2708 9.47916 40.1042 10.5208 40.3125 11.875C40.5208 13.8542 40.625 15.9375 40.625 18.0208C40.625 34.2708 28.6458 40.8333 25 42.3958C21.3542 40.7292 9.375 34.1667 9.375 18.0208C9.375 15.9375 9.47917 13.8542 9.6875 11.875C9.79167 10.5208 10.7292 9.47916 11.9792 9.16666C15.1042 8.33333 19.8958 7.29166 25 7.29166ZM25 4.16666C19.5833 4.16666 14.4792 5.20833 11.1458 6.14583C8.75 6.77083 6.875 8.95833 6.66667 11.4583C6.45833 13.2292 6.25 15.5208 6.25 18.0208C6.25 39.375 25 45.8333 25 45.8333C25 45.8333 43.75 39.375 43.75 18.0208C43.75 15.4167 43.5417 13.2292 43.3333 11.4583C43.0208 8.85416 41.25 6.77083 38.75 6.14583C35.5208 5.20833 30.4167 4.16666 25 4.16666Z" fill="#4CAF50"/>
<path d="M23.9583 29.1667H26.0416V37.5H23.9583V29.1667Z" fill="#DCEDC8"/>
<path d="M25 10.4167C25 10.4167 18.75 15.625 18.75 23.9583C18.75 29.375 22.1875 32.8125 23.9583 34.375L25 31.25L26.0417 34.375C27.8125 32.8125 31.25 29.375 31.25 23.9583C31.25 15.625 25 10.4167 25 10.4167Z" fill="#4CAF50"/>
<path d="M25 10.4167C25 10.4167 18.75 15.625 18.75 23.9583C18.75 29.375 22.1875 32.8125 23.9583 34.375L25 31.25V10.4167Z" fill="#81C784"/>
</svg>
