<svg width="50" height="51" viewBox="0 0 50 51" fill="none" xmlns="http://www.w3.org/2000/svg">
<path d="M23.3627 0.592679C23.2551 0.602453 22.913 0.636661 22.6051 0.661095C15.5034 1.30127 8.85142 5.13258 4.63832 11.0213C2.29228 14.2955 0.791789 18.0095 0.224829 21.9434C0.0244379 23.3166 0 23.7222 0 25.5841C0 27.446 0.0244379 27.8516 0.224829 29.2248C1.58358 38.6125 8.26491 46.4999 17.3265 49.4223C18.9492 49.9452 20.6598 50.3019 22.6051 50.5169C23.3627 50.6 26.6373 50.6 27.3949 50.5169C30.7527 50.1455 33.5973 49.3147 36.4027 47.8829C36.8328 47.663 36.9159 47.6043 36.8573 47.5555C36.8182 47.5262 34.9853 45.0681 32.7859 42.0968L28.7879 36.6969L23.7781 29.2835C21.0215 25.2078 18.7537 21.875 18.7341 21.875C18.7146 21.8701 18.695 25.1638 18.6852 29.1857C18.6706 36.2277 18.6657 36.5112 18.5777 36.6773C18.4506 36.9168 18.3529 37.0145 18.1476 37.122C17.9912 37.2002 17.8543 37.2149 17.1163 37.2149H16.2708L16.0459 37.0731C15.8993 36.9803 15.7918 36.8581 15.7185 36.7164L15.6158 36.4965L15.6256 26.6983L15.6403 16.8953L15.7918 16.7047C15.87 16.6021 16.0362 16.4701 16.1535 16.4066C16.3539 16.3088 16.4321 16.2991 17.2776 16.2991C18.2747 16.2991 18.4409 16.3382 18.6999 16.6216C18.7732 16.6998 21.4858 20.7852 24.7312 25.7063C27.9765 30.6274 32.4145 37.3468 34.5943 40.6454L38.5533 46.6416L38.7537 46.5097C40.5279 45.3564 42.4047 43.7144 43.8905 42.004C47.0528 38.3731 49.0909 33.9455 49.7752 29.2248C49.9756 27.8516 50 27.446 50 25.5841C50 23.7222 49.9756 23.3166 49.7752 21.9434C48.4164 12.5557 41.7351 4.66833 32.6735 1.74598C31.0753 1.22797 29.3744 0.87123 27.4682 0.656208C26.999 0.607339 23.7683 0.553584 23.3627 0.592679ZM33.5973 15.7126C33.8319 15.8299 34.0225 16.0547 34.0909 16.2893C34.13 16.4164 34.1398 19.1335 34.13 25.2567L34.1153 34.0433L32.566 31.6683L31.0117 29.2933V22.9061C31.0117 18.7767 31.0313 16.4555 31.0606 16.3431C31.1388 16.0694 31.3099 15.8544 31.5445 15.7273C31.7449 15.6247 31.8182 15.6149 32.5855 15.6149C33.3089 15.6149 33.436 15.6247 33.5973 15.7126Z" fill="black"/>
</svg>
