<svg width="50" height="50" viewBox="0 0 50 50" fill="none" xmlns="http://www.w3.org/2000/svg">
<g clip-path="url(#clip0_13_180)">
<path fill-rule="evenodd" clip-rule="evenodd" d="M24.7286 40.2851C24.5591 40.2851 24.4009 40.2399 24.254 40.1607L22.7508 39.2679C22.5247 39.1436 22.6378 39.0984 22.7056 39.0758C23.0107 38.974 23.0672 38.9514 23.3837 38.7706C23.4176 38.748 23.4628 38.7593 23.4967 38.7819L24.6495 39.4713C24.6947 39.4939 24.7512 39.4939 24.7851 39.4713L29.2946 36.8606C29.3399 36.838 29.3625 36.7928 29.3625 36.7362V31.526C29.3625 31.4695 29.3399 31.4243 29.2946 31.4017L24.7851 28.8022C24.7399 28.7796 24.6834 28.7796 24.6495 28.8022L20.14 31.4017C20.0948 31.4243 20.0722 31.4808 20.0722 31.526V36.7362C20.0722 36.7814 20.0948 36.838 20.14 36.8606L21.3719 37.5726C22.0388 37.9116 22.4569 37.5161 22.4569 37.1205V31.9781C22.4569 31.9103 22.5134 31.8425 22.5926 31.8425H23.169C23.2368 31.8425 23.3046 31.899 23.3046 31.9781V37.1205C23.3046 38.0134 22.8186 38.5333 21.971 38.5333C21.711 38.5333 21.5076 38.5333 20.9312 38.2507L19.7445 37.5726C19.4506 37.4031 19.2698 37.0866 19.2698 36.7475V31.5373C19.2698 31.1983 19.4506 30.8818 19.7445 30.7123L24.254 28.1015C24.5365 27.9433 24.9208 27.9433 25.2033 28.1015L29.7128 30.7123C30.0067 30.8818 30.1875 31.1983 30.1875 31.5373V36.7475C30.1875 37.0866 30.0067 37.4031 29.7128 37.5726L25.2033 40.1833C25.0564 40.2512 24.8869 40.2851 24.7286 40.2851ZM26.1188 36.7023C24.1409 36.7023 23.7341 35.7982 23.7341 35.0296C23.7341 34.9618 23.7906 34.894 23.8697 34.894H24.4574C24.5252 34.894 24.5817 34.9392 24.5817 35.007C24.6721 35.606 24.9321 35.8999 26.1301 35.8999C27.0795 35.8999 27.4863 35.6852 27.4863 35.1766C27.4863 34.8827 27.3733 34.668 25.8927 34.5211C24.6608 34.3967 23.8923 34.1255 23.8923 33.1422C23.8923 32.2267 24.6608 31.6843 25.9493 31.6843C27.3959 31.6843 28.1079 32.1815 28.1983 33.2665C28.1983 33.3004 28.187 33.3343 28.1644 33.3682C28.1418 33.3909 28.1079 33.4135 28.074 33.4135H27.4863C27.4298 33.4135 27.3733 33.3682 27.362 33.3117C27.2264 32.6901 26.876 32.4867 25.9493 32.4867C24.9095 32.4867 24.7851 32.8484 24.7851 33.1196C24.7851 33.4474 24.9321 33.5491 26.3335 33.7299C27.7237 33.9107 28.3792 34.1707 28.3792 35.1427C28.3679 36.1372 27.5541 36.7023 26.1188 36.7023Z" fill="#539E43"/>
<path fill-rule="evenodd" clip-rule="evenodd" d="M10.7369 19.9076C10.7369 19.7041 10.6239 19.512 10.443 19.4103L5.651 16.6526C5.57188 16.6074 5.48147 16.5848 5.39105 16.5735H5.34584C5.25543 16.5735 5.16501 16.6074 5.0859 16.6526L0.293852 19.4103C0.11302 19.512 0 19.7041 0 19.9076L0.011302 27.3217C0.011302 27.4234 0.0678119 27.5251 0.158228 27.5703C0.248644 27.6268 0.361664 27.6268 0.440778 27.5703L3.28888 25.9428C3.46971 25.8411 3.58273 25.649 3.58273 25.4456V21.9758C3.58273 21.7724 3.69575 21.5803 3.87658 21.4786L5.0859 20.7778C5.17631 20.7213 5.27803 20.6987 5.37975 20.6987C5.48147 20.6987 5.58318 20.7213 5.6623 20.7778L6.87161 21.4786C7.05244 21.5803 7.16546 21.7724 7.16546 21.9758V25.4456C7.16546 25.649 7.27848 25.8411 7.45931 25.9428L10.3074 27.5703C10.3978 27.6268 10.5109 27.6268 10.6013 27.5703C10.6917 27.5251 10.7482 27.4234 10.7482 27.3217L10.7369 19.9076Z" fill="#333333"/>
<path fill-rule="evenodd" clip-rule="evenodd" d="M33.7702 9.70187C33.6798 9.65667 33.5668 9.65667 33.4877 9.70187C33.3973 9.75838 33.3408 9.8488 33.3408 9.95052V17.2968C33.3408 17.3646 33.3069 17.4324 33.239 17.4776C33.1712 17.5116 33.1034 17.5116 33.0356 17.4776L31.8376 16.7882C31.6568 16.6865 31.442 16.6865 31.2612 16.7882L26.4691 19.5572C26.2883 19.6589 26.1753 19.8511 26.1753 20.0545V25.5812C26.1753 25.7846 26.2883 25.9767 26.4691 26.0785L31.2612 28.8474C31.442 28.9492 31.6568 28.9492 31.8376 28.8474L36.6296 26.0785C36.8105 25.9767 36.9235 25.7846 36.9235 25.5812V11.804C36.9235 11.5893 36.8105 11.3972 36.6296 11.2955L33.7702 9.70187ZM33.3294 23.7615C33.3294 23.8181 33.3068 23.8633 33.2616 23.8859L31.6228 24.8352C31.5776 24.8578 31.5211 24.8578 31.4759 24.8352L29.8371 23.8859C29.7919 23.8633 29.7693 23.8068 29.7693 23.7615V21.8628C29.7693 21.8063 29.7919 21.7611 29.8371 21.7385L31.4759 20.7891C31.5211 20.7665 31.5776 20.7665 31.6228 20.7891L33.2616 21.7385C33.3068 21.7611 33.3294 21.8176 33.3294 21.8628V23.7615Z" fill="#333333"/>
<path fill-rule="evenodd" clip-rule="evenodd" d="M49.7176 21.8176C49.8984 21.7159 50.0001 21.5238 50.0001 21.3203V19.9754C50.0001 19.772 49.8871 19.5798 49.7176 19.4781L44.9594 16.7204C44.7786 16.6187 44.5638 16.6187 44.383 16.7204L39.591 19.4894C39.4101 19.5911 39.2971 19.7833 39.2971 19.9867V25.5134C39.2971 25.7168 39.4101 25.9089 39.591 26.0107L44.3491 28.7231C44.5299 28.8249 44.7447 28.8249 44.9142 28.7231L47.7962 27.1182C47.8866 27.073 47.9431 26.9713 47.9431 26.8696C47.9431 26.7679 47.8866 26.6662 47.7962 26.621L42.9816 23.852C42.8912 23.7955 42.8346 23.705 42.8346 23.6033V21.8741C42.8346 21.7724 42.8912 21.6707 42.9816 21.6255L44.4847 20.7665C44.5751 20.71 44.6882 20.71 44.7786 20.7665L46.2817 21.6255C46.3722 21.682 46.4287 21.7724 46.4287 21.8741V23.2304C46.4287 23.3321 46.4852 23.4338 46.5756 23.479C46.666 23.5355 46.779 23.5355 46.8695 23.479L49.7176 21.8176Z" fill="#333333"/>
<path fill-rule="evenodd" clip-rule="evenodd" d="M44.5977 21.5577C44.6316 21.5351 44.6768 21.5351 44.7107 21.5577L45.6262 22.0888C45.6601 22.1115 45.6827 22.1454 45.6827 22.1906V23.253C45.6827 23.2982 45.6601 23.3321 45.6262 23.3547L44.7107 23.8859C44.6768 23.9085 44.6316 23.9085 44.5977 23.8859L43.6822 23.3547C43.6483 23.3321 43.6257 23.2982 43.6257 23.253V22.1906C43.6257 22.1454 43.6483 22.1115 43.6822 22.0888L44.5977 21.5577Z" fill="#539E43"/>
<path fill-rule="evenodd" clip-rule="evenodd" d="M18.7499 16.743C18.5691 16.6413 18.3543 16.6413 18.1735 16.743L13.4154 19.4894C13.2345 19.5911 13.1328 19.7832 13.1328 19.9867V25.4907C13.1328 25.6942 13.2458 25.8863 13.4154 25.988L18.1735 28.7344C18.3543 28.8361 18.5691 28.8361 18.7499 28.7344L23.508 25.988C23.6889 25.8863 23.7906 25.6942 23.7906 25.4907V19.9867C23.7906 19.7832 23.6776 19.5911 23.508 19.4894L18.7499 16.743Z" fill="white"/>
<path fill-rule="evenodd" clip-rule="evenodd" d="M18.7499 16.743C18.5691 16.6413 18.3543 16.6413 18.1735 16.743L13.4154 19.4894C13.2345 19.5911 13.1328 19.7832 13.1328 19.9867V25.4907C13.1328 25.6942 13.2458 25.8863 13.4154 25.988L18.1735 28.7344C18.3543 28.8361 18.5691 28.8361 18.7499 28.7344L23.508 25.988C23.6889 25.8863 23.7906 25.6942 23.7906 25.4907V19.9867C23.7906 19.7832 23.6776 19.5911 23.508 19.4894L18.7499 16.743Z" fill="url(#paint0_linear_13_180)"/>
<mask id="mask0_13_180" style="mask-type:luminance" maskUnits="userSpaceOnUse" x="13" y="16" width="11" height="13">
<path fill-rule="evenodd" clip-rule="evenodd" d="M18.7499 16.743C18.5691 16.6413 18.3543 16.6413 18.1735 16.743L13.4154 19.4894C13.2345 19.5911 13.1328 19.7832 13.1328 19.9867V25.4907C13.1328 25.6942 13.2458 25.8863 13.4154 25.988L18.1735 28.7344C18.3543 28.8361 18.5691 28.8361 18.7499 28.7344L23.508 25.988C23.6889 25.8863 23.7906 25.6942 23.7906 25.4907V19.9867C23.7906 19.7832 23.6776 19.5911 23.508 19.4894L18.7499 16.743Z" fill="white"/>
</mask>
<g mask="url(#mask0_13_180)">
<path fill-rule="evenodd" clip-rule="evenodd" d="M23.5194 19.4894L18.7387 16.743C18.6935 16.7204 18.637 16.6978 18.5918 16.6865L13.2346 25.8637C13.2798 25.9202 13.3363 25.9654 13.3928 25.9993L18.1736 28.7457C18.3092 28.8248 18.4674 28.8475 18.6144 28.8022L23.6438 19.6024C23.6098 19.5572 23.5646 19.5233 23.5194 19.4894Z" fill="url(#paint1_linear_13_180)"/>
</g>
<mask id="mask1_13_180" style="mask-type:luminance" maskUnits="userSpaceOnUse" x="13" y="16" width="11" height="13">
<path fill-rule="evenodd" clip-rule="evenodd" d="M18.7499 16.743C18.5691 16.6413 18.3543 16.6413 18.1735 16.743L13.4154 19.4894C13.2345 19.5911 13.1328 19.7832 13.1328 19.9867V25.4907C13.1328 25.6942 13.2458 25.8863 13.4154 25.988L18.1735 28.7344C18.3543 28.8361 18.5691 28.8361 18.7499 28.7344L23.508 25.988C23.6889 25.8863 23.7906 25.6942 23.7906 25.4907V19.9867C23.7906 19.7832 23.6776 19.5911 23.508 19.4894L18.7499 16.743Z" fill="white"/>
</mask>
<g mask="url(#mask1_13_180)">
<path fill-rule="evenodd" clip-rule="evenodd" d="M23.5306 25.988C23.6662 25.9089 23.7679 25.7733 23.8131 25.6264L18.569 16.6752C18.4334 16.6526 18.2864 16.6639 18.1621 16.743L13.4153 19.4781L18.5351 28.8135C18.6029 28.8022 18.682 28.7796 18.7498 28.7457L23.5306 25.988Z" fill="url(#paint2_linear_13_180)"/>
<path fill-rule="evenodd" clip-rule="evenodd" d="M23.5306 25.988L18.7611 28.7344C18.6933 28.7683 18.6255 28.7909 18.5464 28.8022L18.6368 28.9718L23.9261 25.9089V25.8411L23.7905 25.6151C23.7679 25.7733 23.6662 25.9089 23.5306 25.988Z" fill="url(#paint3_linear_13_180)"/>
<path fill-rule="evenodd" clip-rule="evenodd" d="M23.5306 25.988L18.7611 28.7344C18.6933 28.7683 18.6255 28.7909 18.5464 28.8022L18.6368 28.9718L23.9261 25.9089V25.8411L23.7905 25.6151C23.7679 25.7733 23.6662 25.9089 23.5306 25.988Z" fill="url(#paint4_linear_13_180)"/>
</g>
</g>
<defs>
<linearGradient id="paint0_linear_13_180" x1="17.434" y1="17.2466" x2="12.3692" y2="23.3759" gradientUnits="userSpaceOnUse">
<stop stop-color="#41873F"/>
<stop offset="0.3288" stop-color="#418B3D"/>
<stop offset="0.6352" stop-color="#419637"/>
<stop offset="0.9319" stop-color="#3FA92D"/>
<stop offset="1" stop-color="#3FAE2A"/>
</linearGradient>
<linearGradient id="paint1_linear_13_180" x1="20.5513" y1="30.2559" x2="33.2206" y2="25.1944" gradientUnits="userSpaceOnUse">
<stop offset="0.1376" stop-color="#41873F"/>
<stop offset="0.4032" stop-color="#54A044"/>
<stop offset="0.7136" stop-color="#66B848"/>
<stop offset="0.9081" stop-color="#6CC04A"/>
</linearGradient>
<linearGradient id="paint2_linear_13_180" x1="12.9589" y1="29.1709" x2="23.969" y2="29.1709" gradientUnits="userSpaceOnUse">
<stop offset="0.0919165" stop-color="#6CC04A"/>
<stop offset="0.2864" stop-color="#66B848"/>
<stop offset="0.5968" stop-color="#54A044"/>
<stop offset="0.8624" stop-color="#41873F"/>
</linearGradient>
<linearGradient id="paint3_linear_13_180" x1="12.9589" y1="30.7375" x2="23.969" y2="30.7375" gradientUnits="userSpaceOnUse">
<stop offset="0.0919165" stop-color="#6CC04A"/>
<stop offset="0.2864" stop-color="#66B848"/>
<stop offset="0.5968" stop-color="#54A044"/>
<stop offset="0.8624" stop-color="#41873F"/>
</linearGradient>
<linearGradient id="paint4_linear_13_180" x1="11.8242" y1="17.7054" x2="10.7862" y2="31.6769" gradientUnits="userSpaceOnUse">
<stop stop-color="#41873F"/>
<stop offset="0.3288" stop-color="#418B3D"/>
<stop offset="0.6352" stop-color="#419637"/>
<stop offset="0.9319" stop-color="#3FA92D"/>
<stop offset="1" stop-color="#3FAE2A"/>
</linearGradient>
<clipPath id="clip0_13_180">
<rect width="50" height="50" fill="white"/>
</clipPath>
</defs>
</svg>
