<svg width="54" height="50" viewBox="0 0 54 50" fill="none" xmlns="http://www.w3.org/2000/svg">
<g clip-path="url(#clip0_13_589)">
<path d="M52.8666 28.0782C54.7242 14.7958 44.4544 2.65251 29.9386 0.955849C15.4228 -0.740816 2.07467 8.63931 0.21708 21.8975C-1.64052 35.1558 8.62933 47.3233 23.1451 49.0442C37.6874 50.7408 50.9825 41.3607 52.8666 28.0782Z" fill="#FF6C37"/>
<path d="M36.1217 16.3228L24.923 26.5512L21.7651 23.6669C32.778 13.6081 33.866 14.4807 36.1217 16.3228Z" fill="white"/>
<path d="M24.9232 26.7936C24.8436 26.7936 24.7905 26.7694 24.7374 26.7209L21.553 23.8366C21.4469 23.7396 21.4469 23.5942 21.553 23.4972C32.7516 13.2688 33.9193 14.2383 36.2811 16.1774C36.3341 16.2258 36.3607 16.2743 36.3607 16.347C36.3607 16.4197 36.3341 16.4682 36.2811 16.5167L25.0824 26.7209C25.0559 26.7694 24.9763 26.7936 24.9232 26.7936ZM22.1368 23.6669L24.9232 26.2119L35.7238 16.347C33.7601 14.7473 32.4332 14.2625 22.1368 23.6669Z" fill="#FF6C37"/>
<path d="M28.134 29.484L25.0823 26.6967L36.2809 16.4682C39.2796 19.2313 34.7948 23.7154 28.134 29.484Z" fill="white"/>
<path d="M28.1341 29.7264C28.0545 29.7264 28.0014 29.7022 27.9483 29.6537L24.8966 26.8663C24.8435 26.8179 24.8435 26.7694 24.8435 26.6967C24.8435 26.624 24.87 26.5755 24.9231 26.527L36.1218 16.2985C36.2279 16.2016 36.3871 16.2016 36.4933 16.2985C37.1832 16.8803 37.5548 17.7044 37.5282 18.5527C37.4752 21.2431 34.1315 24.6607 28.3464 29.6537C28.2668 29.7022 28.1872 29.7264 28.1341 29.7264ZM25.4539 26.6967C27.1522 28.2721 27.8687 28.9023 28.1341 29.1447C32.5923 25.2666 36.9179 21.2916 36.9444 18.5527C36.9709 17.9225 36.7056 17.2923 36.2544 16.8075L25.4539 26.6967Z" fill="#FF6C37"/>
<path d="M21.8182 23.7396L24.0738 25.7999C24.1269 25.8483 24.1269 25.8968 24.0738 25.9453C24.0473 25.9695 24.0473 25.9695 24.0207 25.9695L19.3502 26.8906C19.1114 26.9148 18.8991 26.7694 18.846 26.5512C18.8195 26.4301 18.8726 26.3089 18.9522 26.2361L21.6589 23.7639C21.712 23.7154 21.7916 23.6912 21.8182 23.7396Z" fill="white"/>
<path d="M19.2708 27.133C18.8727 27.133 18.5808 26.8421 18.5808 26.4785C18.5808 26.3089 18.6604 26.1392 18.7931 26.018L21.4999 23.5457C21.6591 23.4245 21.8714 23.4245 22.0306 23.5457L24.2863 25.606C24.4455 25.7271 24.4455 25.9453 24.2863 26.0907C24.2332 26.1392 24.1801 26.1634 24.1005 26.1877L19.43 27.1087C19.3769 27.1087 19.3238 27.133 19.2708 27.133ZM21.7387 24.0062L19.1381 26.3816C19.085 26.4301 19.0585 26.5028 19.1116 26.5755C19.1381 26.6482 19.2177 26.6724 19.2973 26.6482L23.6759 25.7756L21.7387 24.0062Z" fill="#FF6C37"/>
<path d="M42.0396 10.6511C40.3412 9.14831 37.6079 9.19679 35.9626 10.7723C34.3173 12.3477 34.3704 14.82 36.0953 16.3228C37.5018 17.5589 39.6247 17.7771 41.2966 16.856L38.2713 14.0929L42.0396 10.6511Z" fill="white"/>
<path d="M39.0673 17.6559C36.5463 17.6559 34.5029 15.7895 34.5029 13.4869C34.5029 11.1843 36.5463 9.31798 39.0673 9.31798C40.2349 9.31798 41.376 9.73003 42.2252 10.4814C42.2783 10.5299 42.3048 10.5784 42.3048 10.6511C42.3048 10.7238 42.2783 10.7723 42.2252 10.8207L38.6427 14.0929L41.4556 16.6621C41.5618 16.7591 41.5618 16.9045 41.4556 17.0014C41.4291 17.0257 41.4291 17.0257 41.4026 17.0499C40.7126 17.4377 39.89 17.6559 39.0673 17.6559ZM39.0673 9.82698C36.8382 9.82698 35.0337 11.4752 35.0602 13.5112C35.0602 15.5472 36.8647 17.1954 39.0938 17.1711C39.7042 17.1711 40.3145 17.0499 40.8718 16.7833L38.0854 14.2625C38.0324 14.2141 38.0058 14.1656 38.0058 14.0929C38.0058 14.0202 38.0324 13.9717 38.0854 13.9232L41.6414 10.6753C40.9249 10.1178 40.0226 9.82698 39.0673 9.82698Z" fill="#FF6C37"/>
<path d="M42.1191 10.7238L42.066 10.6753L38.2712 14.0929L41.2699 16.8318C41.5618 16.6621 41.8537 16.4682 42.0926 16.2501C43.791 14.7231 43.791 12.2508 42.1191 10.7238Z" fill="white"/>
<path d="M41.2965 17.0984C41.2168 17.0984 41.1638 17.0742 41.1107 17.0257L38.0855 14.2625C38.0324 14.2141 38.0059 14.1656 38.0059 14.0929C38.0059 14.0202 38.0324 13.9717 38.0855 13.9232L41.8537 10.4814C41.9599 10.3845 42.1191 10.3845 42.2253 10.4814L42.3049 10.5299C44.0828 12.1538 44.0828 14.7715 42.3314 16.4197C42.066 16.6621 41.7741 16.8803 41.4557 17.0499C41.3761 17.0742 41.323 17.0984 41.2965 17.0984ZM38.6427 14.0929L41.323 16.5409C41.5353 16.4197 41.7476 16.2501 41.9068 16.1046C43.4194 14.7231 43.499 12.4689 42.0395 11.0146L38.6427 14.0929Z" fill="#FF6C37"/>
<path d="M36.573 16.7591C35.9361 16.1774 34.9011 16.1774 34.2642 16.7591L24.2598 25.8968L25.9316 27.4238L36.5199 18.9405C37.2099 18.4073 37.2629 17.462 36.6791 16.8318C36.626 16.8075 36.5995 16.7833 36.573 16.7591Z" fill="white"/>
<path d="M25.905 27.6662C25.8254 27.6662 25.7723 27.642 25.7192 27.5935L24.0474 26.0665C23.9412 25.9695 23.9412 25.8241 24.0474 25.7271L34.0519 16.5894C34.7949 15.9107 35.9891 15.9107 36.7321 16.5894C37.4751 17.2681 37.4751 18.3588 36.7321 19.0374C36.7056 19.0617 36.679 19.0859 36.6525 19.1102L26.0642 27.5935C26.0377 27.642 25.9846 27.6662 25.905 27.6662ZM24.6312 25.8968L25.9315 27.0845L36.3341 18.7466C36.9179 18.3103 36.9709 17.5104 36.4933 16.9772C36.0156 16.444 35.1399 16.3955 34.5561 16.8318C34.5295 16.856 34.503 16.8803 34.4499 16.9045L24.6312 25.8968Z" fill="#FF6C37"/>
<path d="M16.5905 36.2949C16.4843 36.3434 16.4312 36.4404 16.4578 36.5373L16.9089 38.2825C17.0151 38.5248 16.8558 38.8157 16.5639 38.8884C16.3516 38.9611 16.1128 38.8884 15.9801 38.743L13.061 36.101L22.5878 27.3996L25.8784 27.448L28.1076 29.484C27.5768 29.8961 24.3658 32.7319 16.5905 36.2949Z" fill="white"/>
<path d="M16.3783 39.1308C16.166 39.1308 15.9537 39.0581 15.821 38.9127L12.9285 36.2707C12.8754 36.2222 12.8489 36.1738 12.8489 36.101C12.8489 36.0283 12.8754 35.9799 12.9285 35.9314L22.4553 27.2299C22.5084 27.1814 22.588 27.1572 22.6411 27.1572L25.9317 27.2057C26.0113 27.2057 26.0643 27.2299 26.1174 27.2784L28.3465 29.3144C28.3996 29.3629 28.4261 29.4356 28.4261 29.5083C28.4261 29.581 28.3996 29.6295 28.32 29.678L28.1342 29.8234C25.3213 32.0775 21.5 34.3317 16.7498 36.4888L17.201 38.2098C17.2806 38.5248 17.1213 38.8642 16.8029 39.0338C16.6437 39.1066 16.511 39.1308 16.3783 39.1308ZM13.4592 36.101L16.1925 38.5733C16.2722 38.6945 16.4314 38.743 16.5641 38.6703C16.6968 38.5976 16.7498 38.4521 16.6702 38.3309L16.2191 36.5858C16.166 36.3677 16.2722 36.1738 16.4845 36.0768C21.1815 33.9196 24.9763 31.6897 27.7627 29.484L25.799 27.6904L22.7472 27.642L13.4592 36.101Z" fill="#FF6C37"/>
<path d="M10.8053 38.1855L13.0875 36.101L16.4843 39.2035L11.0707 38.8642C10.8319 38.8399 10.6726 38.646 10.6992 38.4279C10.6992 38.3309 10.7257 38.234 10.8053 38.1855Z" fill="white"/>
<path d="M16.4843 39.4217L11.0442 39.0823C10.6462 39.0581 10.3808 38.743 10.4073 38.3794C10.4339 38.234 10.487 38.0886 10.6196 37.9916L12.9018 35.9071C13.008 35.8102 13.1672 35.8102 13.2733 35.9071L16.6701 39.0096C16.7497 39.0823 16.7762 39.1793 16.7232 39.2762C16.6701 39.3732 16.5905 39.4217 16.4843 39.4217ZM13.0876 36.4404L10.9912 38.3552C10.9115 38.4037 10.9115 38.5248 10.9912 38.5733C11.0177 38.5976 11.0442 38.6218 11.0973 38.6218L15.7944 38.9127L13.0876 36.4404Z" fill="#FF6C37"/>
<path d="M21.6592 28.5145C21.4999 28.5145 21.3938 28.3933 21.3938 28.2721C21.3938 28.1994 21.4203 28.151 21.4734 28.1025L24.0475 25.7514C24.1537 25.6544 24.3129 25.6544 24.419 25.7514L26.0909 27.2784C26.1705 27.3511 26.197 27.4238 26.1705 27.5208C26.1439 27.5935 26.0643 27.6662 25.9582 27.6904L21.7122 28.5145C21.6857 28.5145 21.6592 28.5145 21.6592 28.5145ZM24.2333 26.2604L22.4818 27.8601L25.3478 27.3026L24.2333 26.2604Z" fill="#FF6C37"/>
<path d="M25.8785 27.448L22.9594 28.0298C22.7471 28.0782 22.5348 27.957 22.4817 27.7631C22.4552 27.642 22.4817 27.5208 22.5879 27.4238L24.2066 25.9453L25.8785 27.448Z" fill="white"/>
<path d="M22.9063 28.2721C22.5348 28.2721 22.2429 28.0055 22.2429 27.6662C22.2429 27.4965 22.3225 27.3511 22.4287 27.2299L24.0474 25.7514C24.1536 25.6544 24.3128 25.6544 24.419 25.7514L26.0908 27.2784C26.1704 27.3511 26.1969 27.4238 26.1704 27.5208C26.1439 27.5935 26.0643 27.6662 25.9581 27.6904L23.039 28.2721C22.986 28.2721 22.9329 28.2721 22.9063 28.2721ZM24.2332 26.2604L22.8002 27.5692C22.7471 27.6177 22.7471 27.6662 22.7737 27.7147C22.8002 27.7631 22.8533 27.7874 22.9329 27.7874L25.3743 27.3026L24.2332 26.2604Z" fill="#FF6C37"/>
<path d="M42.1458 13.0506C42.0927 12.9052 41.907 12.8325 41.7477 12.881C41.5885 12.9295 41.5089 13.0991 41.562 13.2445C41.562 13.2688 41.5885 13.293 41.5885 13.3173C41.7477 13.6081 41.6947 13.9717 41.4824 14.2383C41.3762 14.3595 41.4028 14.5292 41.5089 14.6261C41.6416 14.7231 41.8274 14.6988 41.9335 14.5776C42.3316 14.1171 42.4112 13.5354 42.1458 13.0506Z" fill="#FF6C37"/>
</g>
<defs>
<clipPath id="clip0_13_589">
<rect width="53.0837" height="50" fill="white"/>
</clipPath>
</defs>
</svg>
