<svg width="45" height="45" viewBox="0 0 45 45" fill="none" xmlns="http://www.w3.org/2000/svg">
<g clip-path="url(#clip0_20_436)">
<path d="M41.5162 33.7828L25.9565 1.33965C25.1549 -0.331912 22.828 -0.469724 21.8343 1.0959L4.58054 28.2909C4.20836 28.8768 4.21961 29.6278 4.60773 30.2034L13.2993 43.0828C13.8384 43.8815 14.8312 44.2425 15.7584 43.9762L40.079 36.9843C41.4449 36.5915 42.1302 35.0643 41.5162 33.7828ZM38.0793 34.949L17.6249 40.6762C17.1515 40.8093 16.7062 40.3903 16.8093 39.9093L24.0609 6.0684C24.1912 5.45903 25.0199 5.36059 25.2899 5.92121L38.6634 33.6909C38.8959 34.2009 38.6193 34.7981 38.0793 34.949Z" fill="#4DB6AC"/>
</g>
<defs>
<clipPath id="clip0_20_436">
<rect width="45" height="45" fill="white"/>
</clipPath>
</defs>
</svg>
