<svg width="50" height="51" viewBox="0 0 50 51" fill="none" xmlns="http://www.w3.org/2000/svg">
<path d="M41.11 17.7323C40.5913 17.5537 40.0539 17.3848 39.5005 17.2251C39.5914 16.8539 39.6749 16.4874 39.7491 16.1273C40.9675 10.213 40.1709 5.44841 37.4506 3.87971C34.8423 2.37553 30.5764 3.94388 26.2682 7.69324C25.8539 8.05378 25.4384 8.4355 25.0231 8.83555C24.7464 8.57087 24.4702 8.31508 24.1946 8.07042C19.6794 4.06136 15.1536 2.37188 12.4361 3.94512C9.83015 5.45366 9.05844 9.93282 10.1552 15.5378C10.2611 16.0792 10.3849 16.6321 10.5249 17.1942C9.88435 17.376 9.26599 17.5699 8.67432 17.7761C3.38073 19.6216 0 22.5141 0 25.5144C0 28.6131 3.62921 31.7211 9.1429 33.6057C9.57802 33.7544 10.0295 33.895 10.4948 34.0285C10.3438 34.6365 10.2124 35.2322 10.1021 35.8133C9.05639 41.321 9.87305 45.6944 12.472 47.1934C15.1565 48.7414 19.6618 47.1502 24.0489 43.3154C24.3956 43.0123 24.7436 42.6908 25.0922 42.3539C25.5441 42.789 25.9952 43.2008 26.4439 43.587C30.6933 47.2437 34.8902 48.7203 37.4868 47.2171C40.1686 45.6646 41.0402 40.9666 39.9086 35.2507C39.8222 34.8142 39.7216 34.3682 39.6087 33.9143C39.9251 33.8208 40.2357 33.7242 40.5386 33.6238C46.2706 31.7247 50 28.6545 50 25.5144C50 22.5033 46.5102 19.5913 41.11 17.7323ZM39.8668 31.5963C39.5934 31.6868 39.3129 31.7743 39.027 31.8591C38.3942 29.8559 37.5402 27.7257 36.4951 25.5248C37.4924 23.3763 38.3134 21.2734 38.9285 19.2831C39.44 19.4311 39.9364 19.5872 40.4148 19.7519C45.0417 21.3448 47.864 23.6998 47.864 25.5144C47.864 27.4473 44.816 29.9564 39.8668 31.5963ZM37.8132 35.6656C38.3136 38.193 38.3851 40.4782 38.0536 42.2646C37.7558 43.8698 37.157 44.94 36.4165 45.3686C34.8407 46.2807 31.4711 45.0951 27.8369 41.9679C27.4203 41.6094 27.0007 41.2266 26.5797 40.8215C27.9886 39.2806 29.3967 37.4893 30.7709 35.4999C33.188 35.2854 35.4717 34.9348 37.5426 34.4561C37.6446 34.8675 37.7352 35.271 37.8132 35.6656ZM17.0461 45.211C15.5066 45.7547 14.2805 45.7703 13.5393 45.3429C11.9621 44.4332 11.3065 40.9219 12.2008 36.2117C12.3033 35.6722 12.4252 35.1181 12.5657 34.5517C14.614 35.0046 16.8809 35.3306 19.3038 35.527C20.6873 37.4737 22.136 39.263 23.5959 40.8297C23.277 41.1377 22.9592 41.4308 22.6433 41.7071C20.7034 43.4028 18.7594 44.6059 17.0461 45.211ZM9.83371 31.5845C7.39567 30.7512 5.38223 29.6682 4.00212 28.4863C2.76201 27.4243 2.13589 26.3699 2.13589 25.5144C2.13589 23.6937 4.85029 21.3715 9.37741 19.7931C9.92672 19.6015 10.5017 19.421 11.0985 19.2515C11.7241 21.2867 12.5449 23.4146 13.5354 25.5664C12.5321 27.75 11.6997 29.9118 11.0679 31.9709C10.6425 31.8486 10.2303 31.7199 9.83371 31.5845ZM12.2514 15.1276C11.3117 10.3254 11.9358 6.70277 13.5062 5.79373C15.1789 4.82533 18.8778 6.20606 22.7764 9.66769C23.0256 9.88895 23.2757 10.1205 23.5266 10.3601C22.0739 11.92 20.6384 13.6959 19.2672 15.6311C16.9157 15.8491 14.6647 16.1992 12.5951 16.668C12.465 16.1446 12.3497 15.6304 12.2514 15.1276ZM33.8191 20.4533C33.3244 19.5987 32.8165 18.7643 32.2987 17.9527C33.894 18.1544 35.4224 18.4221 36.8578 18.7497C36.4269 20.1308 35.8898 21.5748 35.2575 23.0552C34.804 22.1941 34.3243 21.3259 33.8191 20.4533ZM25.0239 11.8866C26.0091 12.954 26.9957 14.1457 27.9662 15.4387C26.9882 15.3925 25.9982 15.3685 25 15.3685C24.0112 15.3685 23.0285 15.392 22.0566 15.4373C23.028 14.1564 24.0232 12.9663 25.0239 11.8866ZM16.1722 20.468C15.678 21.325 15.2072 22.1885 14.7608 23.0535C14.1388 21.5784 13.6067 20.1278 13.172 18.7271C14.5986 18.4079 16.1198 18.1468 17.705 17.949C17.1799 18.7681 16.6678 19.6086 16.1722 20.4678V20.468ZM17.7506 33.2321C16.1129 33.0494 14.5687 32.8018 13.1425 32.4914C13.5841 31.0657 14.128 29.5841 14.7632 28.0772C15.2108 28.9417 15.6835 29.8055 16.1807 30.6643H16.1808C16.6873 31.5393 17.212 32.3963 17.7506 33.2321ZM25.0829 39.2927C24.0706 38.2004 23.0608 36.9922 22.0746 35.6925C23.032 35.7301 24.008 35.7493 25 35.7493C26.0191 35.7493 27.0266 35.7263 28.0182 35.6822C27.0446 37.0053 26.0615 38.2154 25.0829 39.2927ZM35.2779 28.0004C35.9462 29.5236 36.5096 30.9974 36.9569 32.3988C35.5072 32.7296 33.9419 32.9959 32.2928 33.1939C32.8118 32.3713 33.3242 31.5226 33.8277 30.6496C34.337 29.7664 34.8206 28.8818 35.2779 28.0004ZM31.9775 29.5825C31.1959 30.9377 30.3934 32.2314 29.5788 33.4526C28.0951 33.5587 26.5623 33.6133 25 33.6133C23.444 33.6133 21.9305 33.565 20.473 33.4704C19.6256 32.2332 18.8057 30.9357 18.0291 29.5942H18.0293C17.2547 28.2564 16.5419 26.9072 15.8959 25.5656C16.5417 24.221 17.2527 22.8703 18.0228 21.5349L18.0226 21.5351C18.7948 20.1961 19.6074 18.9049 20.4471 17.6755C21.9341 17.5631 23.4589 17.5044 24.9999 17.5044H25C26.548 17.5044 28.0747 17.5635 29.5613 17.6769C30.3881 18.8974 31.1952 20.1844 31.9704 21.5236C32.7544 22.8778 33.4746 24.2194 34.1259 25.5353C33.4766 26.8738 32.758 28.2289 31.9775 29.5825ZM36.3837 5.73018C38.0581 6.69574 38.7092 10.5898 37.6572 15.6962C37.5901 16.022 37.5146 16.3539 37.4325 16.6902C35.3581 16.2115 33.1055 15.8554 30.7471 15.6341C29.3732 13.6776 27.9495 11.899 26.5205 10.3591C26.9047 9.98951 27.2884 9.63708 27.6704 9.30449C31.3618 6.09206 34.8118 4.82373 36.3837 5.73018ZM25 21.0495C27.4658 21.0495 29.4648 23.0485 29.4648 25.5144C29.4648 27.9802 27.4658 29.9792 25 29.9792C22.5342 29.9792 20.5352 27.9802 20.5352 25.5144C20.5352 23.0485 22.5342 21.0495 25 21.0495Z" fill="#00D8FF"/>
</svg>
