<svg width="50" height="51" viewBox="0 0 50 51" fill="none" xmlns="http://www.w3.org/2000/svg">
<path d="M34.0419 33.719C35.7717 33.5429 37.084 32.0769 37.0244 30.3174C36.9648 28.5581 35.4734 27.1505 33.684 27.1505H33.5648C31.7154 27.2092 30.2839 28.734 30.3436 30.5519C30.4033 31.4317 30.761 32.194 31.2979 32.7219C29.2698 36.6512 26.168 39.5248 21.5153 41.9293C18.3538 43.5714 15.0731 44.1579 11.7924 43.7475C9.10809 43.3955 7.02032 42.2227 5.70782 40.2872C3.79913 37.4136 3.62024 34.3053 5.23083 31.1971C6.36426 28.9685 8.15356 27.3264 9.28699 26.5054C9.0484 25.743 8.69043 24.4528 8.51153 23.5146C-0.13782 29.6724 0.757017 38.0001 3.38165 41.9293C5.35003 44.8618 9.34668 46.6798 13.7608 46.6798C14.9537 46.6798 16.1467 46.5624 17.3398 46.2693C24.9751 44.8031 30.7612 40.3459 34.0419 33.719ZM44.5405 26.4469C40.007 21.2273 33.3262 18.3537 25.6909 18.3537H24.7365C24.1996 17.2981 23.0662 16.5942 21.8136 16.5942H21.6942C19.8452 16.6529 18.4137 18.1776 18.4732 19.9958C18.5329 21.7551 20.0241 23.1626 21.8136 23.1626H21.9328C23.2451 23.104 24.3785 22.2829 24.8557 21.1686H25.9294C30.463 21.1686 34.7577 22.4588 38.6351 24.9806C41.6176 26.916 43.765 29.4378 44.9579 32.4873C45.972 34.9505 45.9123 37.3549 44.8386 39.4076C43.1685 42.5158 40.3649 44.2166 36.6666 44.2166C34.2805 44.2166 32.0139 43.5127 30.8207 42.9849C30.1647 43.5714 28.9716 44.5097 28.1364 45.0963C30.7015 46.2691 33.3262 46.9143 35.8314 46.9143C41.5579 46.9143 45.7931 43.806 47.4037 40.6978C49.1335 37.2962 49.0141 31.4317 44.5405 26.4469ZM14.238 34.7157C14.2977 36.4752 15.7889 37.8826 17.5784 37.8826H17.6978C19.5469 37.824 20.9785 36.2991 20.9188 34.4812C20.8593 32.7217 19.3679 31.3143 17.5784 31.3143H17.4592C17.3398 31.3143 17.1607 31.3143 17.0417 31.3728C14.5959 27.3849 13.5819 23.0453 13.9399 18.3535C14.1783 14.8347 15.3714 11.7851 17.4592 9.26326C19.189 7.09334 22.5294 6.03773 24.7962 5.97922C31.119 5.86185 33.8032 13.6031 33.9822 16.7114C34.7577 16.8873 36.07 17.2979 36.9648 17.5912C36.2489 8.09063 30.2839 3.16431 24.5576 3.16431C19.189 3.16431 14.238 6.97633 12.2694 12.6063C9.52557 20.113 11.3151 27.3264 14.6555 33.0151C14.3574 33.4255 14.1783 34.0707 14.238 34.7159V34.7157Z" fill="#764ABC"/>
</svg>
