<svg width="67" height="40" viewBox="0 0 67 40" fill="none" xmlns="http://www.w3.org/2000/svg">
<g clip-path="url(#clip0_13_648)">
<path fill-rule="evenodd" clip-rule="evenodd" d="M33.5006 0C24.5573 0 18.9691 4.44474 16.7323 13.3342C20.0862 8.88947 23.9987 7.22303 28.4697 8.33355C31.0207 8.96701 32.8448 10.8069 34.8622 12.844C38.1504 16.1611 41.9564 20 50.2676 20C59.2097 20 64.7991 15.5553 67.0346 6.6671C63.682 11.1118 59.7695 12.7783 55.2985 11.6664C52.7463 11.033 50.9221 9.19306 48.9048 7.15731C45.6165 3.83756 41.8118 0 33.5006 0ZM16.7323 20C7.79028 20 2.20084 24.4447 -0.034668 33.3342C3.31926 28.8895 7.23173 27.223 11.7014 28.3336C14.2537 28.967 16.0778 30.8069 18.0952 32.844C21.3834 36.1611 25.1881 40 33.5006 40C42.4427 40 48.0321 35.5566 50.2676 26.6671C46.9137 31.1118 43.0012 32.7783 38.5302 31.6678C35.9793 31.033 34.1551 29.1931 32.1378 27.1573C28.8496 23.8402 25.0435 20 16.7323 20Z" fill="#0EA5E9"/>
</g>
<defs>
<clipPath id="clip0_13_648">
<rect width="67" height="40" fill="white"/>
</clipPath>
</defs>
</svg>
