<svg width="42" height="42" viewBox="0 0 42 42" fill="none" xmlns="http://www.w3.org/2000/svg">
<g clip-path="url(#clip0_13_666)">
<path d="M31.5026 1.67519C31.5026 0.356747 30.0264 0.356731 29.3704 0.521536C30.2889 -0.203607 31.366 -0.0277984 31.7487 0.191942L40.6187 4.5412C41.4639 4.95562 42 5.8179 42 6.76285V35.3747C42 36.3323 41.4496 37.2037 40.5873 37.6115L32.2407 41.558C31.6667 41.8052 30.4201 42.415 29.3704 41.558C30.6825 41.8052 31.3933 40.8713 31.5026 40.2396V1.67519Z" fill="url(#paint0_linear_13_666)"/>
<path d="M29.4768 0.497686C30.1732 0.360082 31.5026 0.423896 31.5026 1.67511V11.5236L4.61038 31.8678C4.14033 32.2234 3.4788 32.1644 3.07843 31.7312L0.306799 28.7321C-0.127404 28.2622 -0.0970235 27.5268 0.374435 27.0947L29.3704 0.521456L29.4768 0.497686Z" fill="url(#paint1_linear_13_666)"/>
<path d="M31.5027 30.5559L4.61038 10.2117C4.14033 9.85611 3.4788 9.91511 3.07843 10.3483L0.306799 13.3474C-0.127404 13.8173 -0.0970235 14.5527 0.374435 14.9848L29.3704 41.5581C30.6825 41.8053 31.3933 40.8713 31.5027 40.2396V30.5559Z" fill="url(#paint2_linear_13_666)"/>
</g>
<defs>
<linearGradient id="paint0_linear_13_666" x1="35.6852" y1="-6.37488e-08" x2="35.6852" y2="42" gradientUnits="userSpaceOnUse">
<stop stop-color="#32B5F1"/>
<stop offset="1" stop-color="#2B9FED"/>
</linearGradient>
<linearGradient id="paint1_linear_13_666" x1="31.5026" y1="5.3008" x2="1.53256" y2="30.4575" gradientUnits="userSpaceOnUse">
<stop stop-color="#0F6FB3"/>
<stop offset="0.270551" stop-color="#1279B7"/>
<stop offset="0.421376" stop-color="#1176B5"/>
<stop offset="0.618197" stop-color="#0E69AC"/>
<stop offset="0.855344" stop-color="#0F70AF"/>
<stop offset="1" stop-color="#0F6DAD"/>
</linearGradient>
<linearGradient id="paint2_linear_13_666" x1="1.73282" y1="11.9755" x2="31.6187" y2="36.721" gradientUnits="userSpaceOnUse">
<stop stop-color="#1791D2"/>
<stop offset="1" stop-color="#1173C5"/>
</linearGradient>
<clipPath id="clip0_13_666">
<rect width="42" height="42" fill="white"/>
</clipPath>
</defs>
</svg>
